<svg version="1.1" id="Layer_1" xmlns="http://www.w3.org/2000/svg" xmlns:xlink="http://www.w3.org/1999/xlink" x="0px" y="0px" viewBox="0 0 60 60" style="enable-background:new 0 0 60 60" xml:space="preserve"><style>.st0{fill:#002856}.st1{clip-path:url(#SVGID_2_);fill:#002856}.st2{clip-path:url(#SVGID_4_)}.st3{clip-path:url(#SVGID_6_);fill:#002856}.st4{clip-path:url(#SVGID_8_)}.st5{clip-path:url(#SVGID_10_)}.st6{clip-path:url(#SVGID_12_);fill:#FFFFFF}.st7{clip-path:url(#SVGID_14_)}.st8{fill:#FFFFFF}.st9{clip-path:url(#SVGID_16_);fill:#FFFFFF}.st10{clip-path:url(#SVGID_18_)}.st11{clip-path:url(#SVGID_20_)}.st12{clip-path:url(#SVGID_22_);fill:#002856}.st13{clip-path:url(#SVGID_24_)}.st14{clip-path:url(#SVGID_26_);fill:#002856}.st15{clip-path:url(#SVGID_28_)}.st16{clip-path:url(#SVGID_30_)}.st17{clip-path:url(#SVGID_32_);fill:#FFFFFF}.st18{clip-path:url(#SVGID_34_)}.st19{clip-path:url(#SVGID_36_);fill:#FFFFFF}.st20{clip-path:url(#SVGID_38_)}.st21{clip-path:url(#SVGID_40_)}</style><g><defs><rect id="SVGID_39_" x="-0.2" width="60.3" height="60.3"></rect></defs><clipPath id="SVGID_2_"><use xlink:href="#SVGID_39_" style="overflow:visible"></use></clipPath><g style="clip-path:url(#SVGID_2_)"><circle class="st8" cx="20.1" cy="48.1" r="0.8"></circle><path class="st8" d="M36.7,12.6c-0.1-0.1-0.2-0.2-0.3-0.2l-3.9-0.6l-0.1,0l0-0.1l-1.8-3.6c-0.1-0.1-0.2-0.2-0.3-0.3
			c-0.1,0-0.1,0-0.2,0c-0.1,0-0.2,0-0.3,0.1c-0.1,0.1-0.2,0.1-0.3,0.3l-1.8,3.6l0,0.1l-0.1,0l-3.9,0.6c-0.3,0-0.5,0.3-0.5,0.7
			c0,0.1,0.1,0.2,0.2,0.3l2.8,2.8l0.1,0.1l0,0.1l-0.7,3.9c0,0.2,0,0.3,0.1,0.4c0.1,0.1,0.2,0.2,0.4,0.2c0,0,0.1,0,0.1,0
			c0.1,0,0.2,0,0.3-0.1l3.5-1.8l0.1,0l0.1,0l3.5,1.8c0.1,0,0.2,0.1,0.3,0.1c0.1,0,0.2,0,0.4-0.1c0.2-0.1,0.3-0.3,0.2-0.5l-0.7-3.9
			l0-0.1l0.1-0.1l2.8-2.8c0.1-0.1,0.2-0.3,0.2-0.4C36.9,12.8,36.8,12.7,36.7,12.6z M34.7,13.7l-2,2c-0.1,0.1-0.2,0.3-0.2,0.5
			l0.5,2.8l0.1,0.4l-0.3-0.2l-2.5-1.3c-0.1,0-0.2-0.1-0.3-0.1c-0.1,0-0.2,0-0.3,0.1l-2.5,1.3l-0.3,0.2l0.1-0.4l0.5-2.8
			c0-0.2,0-0.4-0.2-0.5l-2-2L25,13.4l0.4-0.1l2.8-0.4c0.2,0,0.4-0.1,0.4-0.3l1.2-2.5L30,9.7l0.2,0.3l1.2,2.5
			c0.1,0.2,0.2,0.3,0.4,0.3l2.8,0.4l0.4,0.1L34.7,13.7z"></path><path class="st8" d="M46.1,29.5l1.3-3.8l0-0.1l0.1,0l3.8-1.1c0.3-0.1,0.5-0.4,0.4-0.7c0-0.1-0.1-0.2-0.2-0.3l-3.2-2.4l-0.1-0.1
			l0-0.1l0.2-4c0-0.2,0-0.3-0.2-0.4c-0.1-0.1-0.2-0.2-0.4-0.2l0,0c-0.1,0-0.2,0-0.3,0.1l-3.2,2.3l-0.1,0.1l-0.1,0l-3.7-1.4
			c-0.1,0-0.1,0-0.2,0c-0.2,0-0.5,0.2-0.5,0.4c0,0.1,0,0.3,0,0.4l1.2,3.8l0,0.1l-0.1,0.1l-2.5,3.1c-0.1,0.1-0.1,0.3-0.1,0.4
			c0,0.2,0.1,0.3,0.2,0.4c0.1,0.1,0.2,0.1,0.3,0.1l4,0.1l0.1,0l0.1,0.1l2.2,3.3c0.1,0.2,0.3,0.2,0.5,0.2c0,0,0.1,0,0.1,0
			C45.9,29.8,46.1,29.7,46.1,29.5z M45.5,27.6L45.4,28l-0.2-0.3l-1.6-2.3c-0.1-0.2-0.3-0.3-0.5-0.3l-2.8,0L40,25l0.2-0.3l1.7-2.2
			c0.1-0.1,0.2-0.3,0.1-0.5l-0.8-2.7l-0.1-0.4l0.4,0.1l2.6,1c0.1,0,0.1,0,0.2,0c0.1,0,0.2,0,0.3-0.1l2.3-1.6l0.3-0.2l0,0.4l-0.1,2.8
			c0,0.2,0.1,0.4,0.2,0.5l2.2,1.7l0.3,0.2l-0.4,0.1l-2.7,0.8c-0.2,0.1-0.3,0.2-0.4,0.4L45.5,27.6z"></path><path class="st8" d="M8.4,24.3c0.1,0.1,0.2,0.2,0.3,0.2l3.8,1.1l0.1,0l0,0.1l0,0.1l1.2,3.6c0.1,0.2,0.2,0.3,0.5,0.4
			c0,0,0.1,0,0.1,0c0.2,0,0.4-0.1,0.5-0.2l2.2-3.3l0.1-0.1l0.1,0l4-0.1l0,0l0,0l0,0c0.2,0,0.4-0.1,0.5-0.3c0.1-0.2,0.1-0.4-0.1-0.6
			l-2.5-3.1L19.2,22l0-0.1l1.2-3.8c0-0.1,0-0.3,0-0.4c-0.1-0.1-0.2-0.2-0.3-0.3c-0.1,0-0.1,0-0.2,0c-0.1,0-0.1,0-0.2,0l-3.7,1.4
			l-0.1,0l-0.1-0.1l-3.2-2.3c-0.1-0.1-0.2-0.1-0.3-0.1c0,0-0.1,0-0.1,0c-0.2,0-0.3,0.1-0.4,0.2c-0.1,0.1-0.1,0.2-0.1,0.4l0.2,4
			l0,0.1l-0.1,0.1l-3.2,2.4C8.2,23.7,8.2,24,8.4,24.3z M10.4,23.5l2.2-1.7c0.2-0.1,0.2-0.3,0.2-0.5l-0.1-2.8l0-0.4l0.3,0.2l2.3,1.6
			c0.1,0.1,0.2,0.1,0.3,0.1c0.1,0,0.1,0,0.2,0l2.6-1l0.4-0.1l-0.1,0.4L18,22c-0.1,0.2,0,0.4,0.1,0.5l1.7,2.2l0.2,0.3l-0.4,0l-2.8,0
			c-0.2,0-0.4,0.1-0.5,0.2l0,0l-1.6,2.3L14.6,28l-0.1-0.4l-0.9-2.7c-0.1-0.2-0.2-0.3-0.4-0.4l-2.7-0.8l-0.4-0.1L10.4,23.5z"></path><path class="st8" d="M43.2,44.3c0-0.5-0.1-1-0.2-1.2l0-0.1l0.1-0.1c0.6-0.8,0.9-1.6,0.8-2.4c0-0.9-0.4-1.6-0.8-2.1l-0.1-0.1l0-0.1
			c0.3-0.7,0.7-2.3-0.8-3.7c-0.9-0.8-2.3-1.2-4.2-1.2c-0.2,0-0.5,0-0.7,0c-1.6,0.1-2.9,0.4-3.1,0.4l0,0l0,0c-0.3,0.1-0.6,0.1-1,0.2
			l-0.2,0l0-0.2c0-0.5,0.1-1.6,0.8-3.8c0.9-2.6,0.8-4.6-0.1-6c-1-1.4-2.6-1.5-3.1-1.5c-0.4,0-0.8,0.2-1.1,0.5
			c-0.7,0.8-0.6,2.3-0.5,2.9l0,0l0,0c-0.1,0.3-2.8,7.5-5.2,9.3l0,0l0,0c0,0,0,0-0.1,0.1c-0.5,0.5-0.9,1.1-1.2,1.8l-0.1,0.2l-0.2-0.1
			c-0.4-0.2-0.7-0.3-1.2-0.3h-3.9c-1.3,0-2.4,1.1-2.4,2.4v10.3c0,1.3,1.1,2.4,2.4,2.4h3.9c0.5,0,1-0.2,1.4-0.4l0.1,0l0.1,0l1.5,0.2
			c0,0,3.6,0.5,7.5,0.5c0.3,0,0.6,0,0.9,0l0,0l0,0c0.8,0.1,1.5,0.1,2.1,0.1c1.1,0,2.1-0.1,2.9-0.3c1.9-0.4,3.2-1.2,3.8-2.3
			c0.5-0.9,0.5-1.7,0.4-2.3l0-0.1l0.1-0.1C43,46.4,43.2,45.1,43.2,44.3z M22.2,49.8c0,0.6-0.5,1.1-1.1,1.1h-3.7l-0.2,0
			c-0.6,0-1.1-0.5-1.1-1.1V39.6c0-0.6,0.5-1.1,1.1-1.1h3.9c0.6,0,1.1,0.5,1.1,1.1V49.8z M41.6,42.4c-0.2,0.2-0.2,0.5-0.1,0.8l0,0v0
			c0.1,0.2,0.3,0.6,0.3,1.1c0,0.9-0.4,1.7-1.3,2.4c-0.2,0.2-0.3,0.5-0.2,0.8l0,0v0c0.1,0.3,0.2,1-0.2,1.8c-0.5,0.8-1.4,1.4-2.9,1.7
			c-0.7,0.2-1.6,0.2-2.6,0.2c-0.6,0-1.3,0-2.1-0.1h-0.1c-0.3,0-0.6,0-0.9,0c-3.7,0-7.1-0.4-7.3-0.5l0,0l-0.6-0.1l-0.2,0l0-0.2
			c0-0.2,0.1-0.3,0.1-0.5V39.6c0-0.2,0-0.5-0.1-0.7l0-0.1l0-0.1c0.1-0.5,0.5-1.4,1.2-2.3l0,0l0,0c2.7-2.2,5.4-9.3,5.7-10.1
			c0-0.1,0-0.2,0-0.3c-0.1-0.7-0.1-1.6,0.1-2l0.1-0.1l0.1,0c0.4,0,1.3,0.1,1.9,0.9c0.7,0.9,0.7,2.6,0,4.8c-1,3.1-1.1,4.8-0.4,5.5
			c0.3,0.2,0.6,0.3,0.8,0.3c0.1,0,0.3,0,0.4-0.1l0,0l0,0c0.4-0.1,0.8-0.2,1.1-0.2c0,0,0,0,0,0c0,0,0,0,0,0c1.1-0.2,2.3-0.4,3.4-0.4
			c1.1,0,2.6,0.1,3.4,0.8c1.1,1,0.3,2.4,0.2,2.6c-0.2,0.3-0.1,0.6,0.1,0.9l0,0l0,0c0.1,0.1,0.7,0.7,0.8,1.6
			C42.5,41.2,42.2,41.8,41.6,42.4z"></path></g></g></svg>