<svg version="1.1" id="Layer_1" xmlns="http://www.w3.org/2000/svg" xmlns:xlink="http://www.w3.org/1999/xlink" x="0px" y="0px" viewBox="0 0 60 60" style="enable-background:new 0 0 60 60" xml:space="preserve"><style>.st0{fill:#002856}.st1{clip-path:url(#SVGID_2_);fill:#002856}.st2{clip-path:url(#SVGID_4_)}.st3{clip-path:url(#SVGID_6_);fill:#002856}.st4{clip-path:url(#SVGID_8_)}.st5{clip-path:url(#SVGID_10_)}.st6{clip-path:url(#SVGID_12_);fill:#FFFFFF}.st7{clip-path:url(#SVGID_14_)}.st8{fill:#FFFFFF}.st9{clip-path:url(#SVGID_16_);fill:#FFFFFF}.st10{clip-path:url(#SVGID_18_)}.st11{clip-path:url(#SVGID_20_)}.st12{clip-path:url(#SVGID_22_);fill:#002856}.st13{clip-path:url(#SVGID_24_)}.st14{clip-path:url(#SVGID_26_);fill:#002856}.st15{clip-path:url(#SVGID_28_)}.st16{clip-path:url(#SVGID_30_)}.st17{clip-path:url(#SVGID_32_);fill:#FFFFFF}.st18{clip-path:url(#SVGID_34_)}.st19{clip-path:url(#SVGID_36_);fill:#FFFFFF}.st20{clip-path:url(#SVGID_38_)}.st21{clip-path:url(#SVGID_40_)}</style><g><defs><rect id="SVGID_33_" x="-0.2" width="60.3" height="60.3"></rect></defs><clipPath id="SVGID_2_"><use xlink:href="#SVGID_33_" style="overflow:visible"></use></clipPath><g style="clip-path:url(#SVGID_2_)"><path class="st8" d="M47.7,34.3l-0.2,0.1c-0.9-1.1-2.6-1.6-3.8-1c0,0,0,0,0,0L43,33.8c-1.3-1.1-3.3-1.3-4.8-0.4l-3,1.6h-4
			c-0.9,0-1.7-0.2-2.5-0.6l-0.5-0.3c-3.2-1.5-6.9-1.2-9.7,0.9c0,0,0,0,0,0l-1.3,1.2c-0.5,0.4-1.1,0.8-1.7,1l-0.7-2.5
			c-0.1-0.2-0.3-0.4-0.6-0.4H7.8c-0.3,0-0.6,0.3-0.6,0.6c0,0,0,0,0,0.1l2.1,17.4c0,0.3,0.3,0.5,0.6,0.5h9.5c0.3,0,0.6-0.3,0.6-0.6
			c0-0.1,0-0.1,0-0.2l-1.3-4.1l3.9-2.5c0.5-0.3,1.1-0.4,1.7-0.2c0,0,0,0,0,0l7.9,1.5c2.2,0.4,4.4,0.1,6.3-0.9c0,0,0,0,0.1,0
			l13.7-9.4c0.3-0.2,0.3-0.5,0.2-0.8C51.6,34,49.4,33.3,47.7,34.3z M44.1,34.5c0.7-0.4,1.6-0.1,2.2,0.5l-5.2,2.8L40.8,38
			c-0.2-0.5-0.4-0.9-0.7-1.3L44.1,34.5z M38.8,34.4C38.8,34.4,38.8,34.4,38.8,34.4c1-0.6,2.1-0.5,3.1,0l-2.6,1.4
			c-0.5-0.4-1.1-0.6-1.7-0.8L38.8,34.4z M10.5,51.7l-2-16.2h5.2l4.9,16.2H10.5z M38.1,44.9c-1.7,0.8-3.7,1.1-5.6,0.8l-7.9-1.5
			c-0.9-0.2-1.8-0.1-2.6,0.3c0,0,0,0,0,0l-3.6,2.3l-2.6-8.5c0.8-0.2,1.5-0.7,2.2-1.2l1.3-1.2c2.4-1.8,5.7-2.2,8.5-0.8l0.5,0.3
			c0.9,0.4,2,0.7,3,0.7h5.3c1.6,0,3,1.1,3.3,2.7L36,38.7c-1.4-0.1-2.8,0-4.2,0.2c-0.3,0-0.5,0.3-0.5,0.7c0,0.3,0.3,0.5,0.7,0.5
			c1.3-0.2,2.6-0.2,3.9-0.2l4.5,0.2c0,0,0,0,0,0c0.3,0,0.6-0.3,0.6-0.6c0-0.1,0-0.2,0-0.3l0.6-0.3l6.5-3.5c1-0.6,2.3-0.4,3.1,0.5
			L38.1,44.9z"></path><path class="st8" d="M12.3,49.3c0,1,0.8,1.9,1.9,1.9s1.9-0.8,1.9-1.9c0-1-0.8-1.9-1.9-1.9C13.2,47.4,12.3,48.3,12.3,49.3z
			 M14.2,48.6c0.4,0,0.7,0.3,0.7,0.7c0,0.4-0.3,0.7-0.7,0.7c-0.4,0-0.7-0.3-0.7-0.7C13.5,48.9,13.8,48.6,14.2,48.6L14.2,48.6z"></path><path class="st8" d="M34.5,13.8v-1.9c0-2.5-2-4.5-4.5-4.5c-2.5,0-4.5,2-4.5,4.5v1.9c0,2.5,2,4.5,4.5,4.5
			C32.5,18.3,34.5,16.3,34.5,13.8z M26.7,13.8v-1.9c0-1.8,1.5-3.3,3.3-3.3c1.8,0,3.3,1.5,3.3,3.3v1.9c0,1.8-1.5,3.3-3.3,3.3
			C28.2,17.1,26.7,15.6,26.7,13.8z"></path><path class="st8" d="M22.8,30.5h14.5c0.3,0,0.6-0.3,0.6-0.6l0,0v-1.4h9.9c0.3,0,0.6-0.3,0.6-0.6v-3.8c0-2.3-1.8-4.3-4.2-4.4
			c-0.3,0-0.5,0.2-0.6,0.3c-0.9,1.2-2.7,1.3-3.8,0.4c-0.2-0.1-0.3-0.3-0.5-0.5c-0.1-0.2-0.3-0.2-0.5-0.2c-0.8,0-1.5,0.2-2.2,0.6
			c-0.9-1-2.1-1.6-3.5-1.7c-0.3,0-0.5,0.2-0.6,0.4c-1.1,1.4-3.1,1.6-4.5,0.4c-0.2-0.2-0.4-0.4-0.5-0.6c-0.1-0.2-0.3-0.2-0.5-0.2
			c-1.3,0-2.5,0.6-3.4,1.5c-0.1,0.1-0.1,0.2-0.2,0.2c-0.6-0.4-1.3-0.6-2-0.6c-0.3,0-0.5,0.2-0.6,0.3c-0.9,1.2-2.7,1.3-3.8,0.4
			c-0.2-0.1-0.3-0.3-0.5-0.5c-0.1-0.2-0.3-0.2-0.5-0.2c-2.4,0.1-4.3,2-4.3,4.4v3.8c0,0.3,0.3,0.6,0.6,0.6h9.9v1.4
			C22.2,30.2,22.4,30.5,22.8,30.5z M38.5,20.9c1.4,1.6,3.9,1.8,5.5,0.3c0.1-0.1,0.2-0.2,0.3-0.3c1.6,0.2,2.8,1.6,2.8,3.2v3.2h-9.3
			v-3.8c0-0.8-0.2-1.6-0.5-2.3C37.7,21.1,38.1,20.9,38.5,20.9L38.5,20.9z M26.8,19.8c1.6,1.8,4.3,2,6.2,0.5c0.2-0.1,0.3-0.3,0.4-0.4
			c1.9,0.3,3.3,1.9,3.3,3.8v5.7H23.4v-5.7C23.4,21.6,24.8,20,26.8,19.8z M12.8,27.3v-3.2c0-1.6,1.2-3,2.9-3.2
			c1.4,1.6,3.9,1.8,5.5,0.3c0.1-0.1,0.2-0.2,0.3-0.3c0.4,0.1,0.8,0.2,1.2,0.4c-0.4,0.7-0.5,1.5-0.5,2.3v3.8L12.8,27.3z"></path><path class="st8" d="M45.4,15.6v-1.7c0-2.2-1.8-4-4-4c-2.2,0-4,1.8-4,4v1.7c0,2.2,1.8,4,4,4C43.6,19.6,45.4,17.8,45.4,15.6z
			 M38.6,15.6v-1.7c0-1.6,1.3-2.8,2.8-2.8c1.6,0,2.8,1.3,2.8,2.8c0,0,0,0,0,0v1.7c0,1.6-1.3,2.8-2.8,2.8
			C39.8,18.4,38.6,17.1,38.6,15.6C38.6,15.6,38.6,15.6,38.6,15.6z"></path><path class="st8" d="M22.6,15.6v-1.7c0-2.2-1.8-4-4-4s-4,1.8-4,4v1.7c0,2.2,1.8,4,4,4S22.6,17.8,22.6,15.6z M15.8,15.6v-1.7
			c0-1.6,1.3-2.8,2.8-2.8c1.6,0,2.8,1.3,2.8,2.8c0,0,0,0,0,0v1.7c0,1.6-1.3,2.8-2.8,2.8C17,18.4,15.8,17.1,15.8,15.6
			C15.8,15.6,15.8,15.6,15.8,15.6z"></path></g></g></svg>