<svg version="1.1" id="Layer_1" xmlns="http://www.w3.org/2000/svg" xmlns:xlink="http://www.w3.org/1999/xlink" x="0px" y="0px" viewBox="0 0 60 60" style="enable-background:new 0 0 60 60" xml:space="preserve"><style>.st0{fill:#002856}.st1{clip-path:url(#SVGID_2_);fill:#002856}.st2{clip-path:url(#SVGID_4_)}.st3{clip-path:url(#SVGID_6_);fill:#002856}.st4{clip-path:url(#SVGID_8_)}.st5{clip-path:url(#SVGID_10_)}.st6{clip-path:url(#SVGID_12_);fill:#FFFFFF}.st7{clip-path:url(#SVGID_14_)}.st8{fill:#FFFFFF}.st9{clip-path:url(#SVGID_16_);fill:#FFFFFF}.st10{clip-path:url(#SVGID_18_)}.st11{clip-path:url(#SVGID_20_)}.st12{clip-path:url(#SVGID_22_);fill:#002856}.st13{clip-path:url(#SVGID_24_)}.st14{clip-path:url(#SVGID_26_);fill:#002856}.st15{clip-path:url(#SVGID_28_)}.st16{clip-path:url(#SVGID_30_)}.st17{clip-path:url(#SVGID_32_);fill:#FFFFFF}.st18{clip-path:url(#SVGID_34_)}.st19{clip-path:url(#SVGID_36_);fill:#FFFFFF}.st20{clip-path:url(#SVGID_38_)}.st21{clip-path:url(#SVGID_40_)}</style><g><g><defs><rect id="SVGID_35_" x="-0.2" width="60.3" height="60.3"></rect></defs><clipPath id="SVGID_2_"><use xlink:href="#SVGID_35_" style="overflow:visible"></use></clipPath><path style="clip-path:url(#SVGID_2_);fill:#FFFFFF" d="M15.8,52.8c0,0.3,0.2,0.6,0.6,0.6H24c0.3,0,0.6-0.2,0.6-0.6v-2.3v-0.2
			h0.2h23.4c2.8,0,5.1-2.3,5.1-5.1V19.6c0-2.8-2.3-5.1-5.1-5.1c-1.3,0-2.6,0.5-3.6,1.5L44.5,16h-0.1h-1.3h-0.5l0.3-0.3l5.5-5.5
			c0.2-0.2,0.2-0.6,0-0.8l-2.3-2.3C46.1,7,46,6.9,45.9,6.9c-0.1,0-0.3,0.1-0.4,0.2l-8.8,8.8L36.6,16h-0.1H24.7h-0.2v-0.2v-2.3
			c0-0.3-0.2-0.6-0.6-0.6h-7.6c-0.3,0-0.6,0.2-0.6,0.6v2.3V16h-0.2H7.3c-0.3,0-0.6,0.2-0.6,0.6v33.2c0,0.3,0.2,0.6,0.6,0.6h8.3h0.2
			v0.2V52.8z M44.2,41.6v-22c0-2.2,1.8-4,4-4c2.2,0,4,1.8,4,4v22v0.5l-0.3-0.4c-1-1-2.3-1.5-3.6-1.5c-1.3,0-2.6,0.5-3.6,1.4
			c0,0-0.1,0.1-0.1,0.1l-0.3,0.4V41.6z M45.7,8.4l0.1-0.1L46,8.4l1.2,1.2l0.1,0.1l-0.1,0.1L32.4,24.7l-0.1,0.1l-0.1-0.1l-1.2-1.2
			l-0.1-0.1l0.1-0.1L45.7,8.4z M31.4,25.5l-0.2,0.1l-2,1.2l-0.6,0.4l0.4-0.6l1.2-2l0.1-0.2l0.2,0.2l0.9,0.9L31.4,25.5z M24.5,49
			V17.3v-0.2h0.2H35h0.5l-0.3,0.3L29.6,23c0,0-0.1,0.1-0.1,0.1l-0.1,0.2l0,0l-2.9,5.1c-0.2,0.3-0.1,0.6,0.2,0.8
			c0.1,0,0.2,0.1,0.3,0.1c0.1,0,0.2,0,0.3-0.1l5.1-2.9l0,0l0.2-0.1c0,0,0.1,0,0.1-0.1l8.8-8.8l0.1-0.1h0.1h1.7h0.3l-0.1,0.3
			c-0.3,0.7-0.5,1.4-0.5,2.2v25.7c0,0.3,0.2,0.6,0.6,0.6c0.3,0,0.6-0.2,0.6-0.6c0-2.2,1.8-4,4-4c2.2,0,4,1.8,4,4s-1.8,4-4,4H24.7
			h-0.2V49z M17,52.1v-3v-0.2h0.2H20v-1.1h-2.8H17v-0.2V46v-0.2h0.2H20v-1.1h-2.8H17v-0.2V43v-0.2h0.2H20v-1.1h-2.8H17v-0.2V40v-0.2
			h0.2h4.3v-1.1h-4.3H17v-0.2V37v-0.2h0.2H20v-1.1h-2.8H17v-0.2v-1.5v-0.2h0.2H20v-1.1h-2.8H17v-0.2v-1.5v-0.2h0.2H20v-1.1h-2.8H17
			v-0.2v-1.5v-0.2h0.2h4.3v-1.1h-4.3H17v-0.2v-1.5v-0.2h0.2H20v-1.1h-2.8H17v-0.2v-1.5v-0.2h0.2H20v-1.1h-2.8H17v-0.2v-1.5v-0.2h0.2
			H20v-1.1h-2.8H17v-0.2v-3v-0.2h0.2h6h0.2v0.2v37.8v0.2h-0.2h-6H17V52.1z M15.6,49.2h-3h-0.2V49v-1.3h-1.1V49v0.2h-0.2h-3H7.9V49
			V17.3v-0.2h0.2h3h0.2v0.2v1.3h1.1v-1.3v-0.2h0.2h3h0.2v0.2V49v0.2H15.6z"></path><rect x="11.3" y="23.6" style="clip-path:url(#SVGID_2_);fill:#FFFFFF" width="1.1" height="1.1"></rect><rect x="11.3" y="26.6" style="clip-path:url(#SVGID_2_);fill:#FFFFFF" width="1.1" height="1.1"></rect><rect x="11.3" y="29.6" style="clip-path:url(#SVGID_2_);fill:#FFFFFF" width="1.1" height="1.1"></rect><rect x="11.3" y="32.6" style="clip-path:url(#SVGID_2_);fill:#FFFFFF" width="1.1" height="1.1"></rect><rect x="11.3" y="35.6" style="clip-path:url(#SVGID_2_);fill:#FFFFFF" width="1.1" height="1.1"></rect><rect x="11.3" y="38.7" style="clip-path:url(#SVGID_2_);fill:#FFFFFF" width="1.1" height="1.1"></rect><rect x="11.3" y="41.7" style="clip-path:url(#SVGID_2_);fill:#FFFFFF" width="1.1" height="1.1"></rect><rect x="11.3" y="44.7" style="clip-path:url(#SVGID_2_);fill:#FFFFFF" width="1.1" height="1.1"></rect></g></g></svg>