<svg version="1.1" id="Layer_1" xmlns="http://www.w3.org/2000/svg" xmlns:xlink="http://www.w3.org/1999/xlink" x="0px" y="0px" viewBox="0 0 60 60" style="enable-background:new 0 0 60 60" xml:space="preserve"><style>.st0{fill:#002856}.st1{clip-path:url(#SVGID_2_);fill:#002856}.st2{clip-path:url(#SVGID_4_)}.st3{clip-path:url(#SVGID_6_);fill:#002856}.st4{clip-path:url(#SVGID_8_)}.st5{clip-path:url(#SVGID_10_)}.st6{clip-path:url(#SVGID_12_);fill:#FFFFFF}.st7{clip-path:url(#SVGID_14_)}.st8{fill:#FFFFFF}.st9{clip-path:url(#SVGID_16_);fill:#FFFFFF}.st10{clip-path:url(#SVGID_18_)}.st11{clip-path:url(#SVGID_20_)}.st12{clip-path:url(#SVGID_22_);fill:#002856}.st13{clip-path:url(#SVGID_24_)}.st14{clip-path:url(#SVGID_26_);fill:#002856}.st15{clip-path:url(#SVGID_28_)}.st16{clip-path:url(#SVGID_30_)}.st17{clip-path:url(#SVGID_32_);fill:#FFFFFF}.st18{clip-path:url(#SVGID_34_)}.st19{clip-path:url(#SVGID_36_);fill:#FFFFFF}.st20{clip-path:url(#SVGID_38_)}.st21{clip-path:url(#SVGID_40_)}</style><g><defs><rect id="SVGID_37_" x="-0.2" width="60.3" height="60.3"></rect></defs><clipPath id="SVGID_2_"><use xlink:href="#SVGID_37_" style="overflow:visible"></use></clipPath><g style="clip-path:url(#SVGID_2_)"><path class="st8" d="M47.9,28.2L47.9,28.2c-1.7,0-3,1.4-3,3l0,15.4c0,0.1,0,0.2,0.1,0.2l0,0l2.5,5c0.1,0.2,0.3,0.3,0.5,0.3h0
			c0.2,0,0.4-0.1,0.5-0.3l2.5-5l0,0c0-0.1,0.1-0.2,0.1-0.2l0-15.4C50.9,29.6,49.6,28.2,47.9,28.2z M45.9,34.3l1.4,0l0,11.8l-1.4,0
			L45.9,34.3z M47.8,50.4l-1.6-3.3l3.3,0L47.8,50.4z M49.8,46.1l-1.4,0l0-11.8l1.4,0L49.8,46.1z M49.8,33.2l-3.9,0l0-1.9
			c0-1.1,0.9-2,2-2h0c1.1,0,2,0.9,2,2c0,0,0,0,0,0L49.8,33.2z"></path><path class="st8" d="M39.4,16.5L39.4,16.5L39.3,15c0-0.1-0.1-0.3-0.2-0.4l-6.5-6.3c-0.1-0.1-0.2-0.2-0.4-0.2H12.5
			c-1.9,0-3.4,1.5-3.4,3.4v34c0,1.9,1.5,3.4,3.4,3.4h1.2c0.1,1.8,1.6,3.2,3.4,3.2h22.4c1.8,0,3.3-1.5,3.3-3.3c0,0,0,0,0,0v-29
			C42.7,18,41.3,16.5,39.4,16.5C39.4,16.5,39.4,16.5,39.4,16.5z M32.8,10l4.7,4.5h-4.7V10z M12.5,47.9c-1.3,0-2.3-1-2.3-2.3v-34
			c0-1.3,1-2.3,2.3-2.3h19.3V15c0,0.3,0.2,0.5,0.5,0.5c0,0,0,0,0,0h6v30.1c0,1.3-1,2.3-2.3,2.3H12.5z M41.6,48.8
			c0,1.2-1,2.3-2.2,2.3c0,0,0,0,0,0H17c-1.2,0-2.2-0.9-2.3-2.1h21.2c1.9,0,3.4-1.5,3.4-3.4v-28h0.1c1.2,0,2.2,1,2.2,2.2c0,0,0,0,0,0
			V48.8z"></path><path class="st8" d="M15.4,35.2c-0.3,0-0.5,0.2-0.5,0.5c0,0.3,0.2,0.5,0.5,0.5h11.2c0.3,0,0.5-0.2,0.5-0.5c0-0.3-0.2-0.5-0.5-0.5
			H15.4z"></path><path class="st8" d="M33,38.6H15.4c-0.3,0-0.5,0.2-0.5,0.5s0.2,0.5,0.5,0.5H33c0.3,0,0.5-0.2,0.5-0.5S33.3,38.6,33,38.6z"></path><path class="st8" d="M30.5,41.9H15.4c-0.3,0-0.5,0.2-0.5,0.5c0,0.3,0.2,0.5,0.5,0.5h15.1c0.3,0,0.5-0.2,0.5-0.5
			C31,42.1,30.8,41.9,30.5,41.9z"></path><path class="st8" d="M22.9,31.9c4.8,0,8.6-3.9,8.6-8.6s-3.9-8.6-8.6-8.6c-0.8,0-1.5,0.1-2.3,0.3L20.3,14c-0.1-0.2-0.3-0.4-0.5-0.4
			c-3.7,0-6.7,3-6.7,6.7c0,0.2,0.1,0.4,0.4,0.5l1,0.3c-1.1,4.6,1.7,9.3,6.3,10.5C21.5,31.8,22.2,31.9,22.9,31.9z M22.9,15.7
			c4.2,0,7.6,3.4,7.6,7.6c0,4.2-3.4,7.6-7.6,7.6c-4.2,0-7.6-3.4-7.6-7.6c0-0.6,0.1-1.2,0.2-1.7l7.2,2.4c0.3,0.1,0.6-0.1,0.7-0.3
			c0-0.1,0-0.2,0-0.3L21,15.9C21.6,15.7,22.2,15.7,22.9,15.7L22.9,15.7z M14.2,19.9c0.2-2.8,2.4-5,5.2-5.2l2.6,7.8L14.2,19.9z"></path><path class="st8" d="M11.9,10.9c-0.3,0-0.5,0.2-0.5,0.5v0.4c0,0.3,0.2,0.5,0.5,0.5c0.3,0,0.5-0.2,0.5-0.5v-0.4
			C12.5,11.2,12.2,10.9,11.9,10.9z"></path><path class="st8" d="M11.9,13.2c-0.3,0-0.5,0.2-0.5,0.5v6.4c0,0.3,0.2,0.5,0.5,0.5c0.3,0,0.5-0.2,0.5-0.5v-6.4
			C12.5,13.4,12.2,13.2,11.9,13.2z"></path></g></g></svg>