<svg version="1.1" id="Layer_1" xmlns="http://www.w3.org/2000/svg" xmlns:xlink="http://www.w3.org/1999/xlink" x="0px" y="0px" viewBox="0 0 60 60" style="enable-background:new 0 0 60 60" xml:space="preserve"><style>.st0{fill:#002856}.st1{clip-path:url(#SVGID_2_);fill:#002856}.st2{clip-path:url(#SVGID_4_)}.st3{clip-path:url(#SVGID_6_);fill:#002856}.st4{clip-path:url(#SVGID_8_)}.st5{clip-path:url(#SVGID_10_)}.st6{clip-path:url(#SVGID_12_);fill:#FFFFFF}.st7{clip-path:url(#SVGID_14_)}.st8{fill:#FFFFFF}.st9{clip-path:url(#SVGID_16_);fill:#FFFFFF}.st10{clip-path:url(#SVGID_18_)}.st11{clip-path:url(#SVGID_20_)}.st12{clip-path:url(#SVGID_22_);fill:#002856}.st13{clip-path:url(#SVGID_24_)}.st14{clip-path:url(#SVGID_26_);fill:#002856}.st15{clip-path:url(#SVGID_28_)}.st16{clip-path:url(#SVGID_30_)}.st17{clip-path:url(#SVGID_32_);fill:#FFFFFF}.st18{clip-path:url(#SVGID_34_)}.st19{clip-path:url(#SVGID_36_);fill:#FFFFFF}.st20{clip-path:url(#SVGID_38_)}.st21{clip-path:url(#SVGID_40_)}</style><g><defs><rect id="SVGID_31_" width="60.3" height="60.3"></rect></defs><clipPath id="SVGID_2_"><use xlink:href="#SVGID_31_" style="overflow:visible"></use></clipPath><path style="clip-path:url(#SVGID_2_);fill:#FFFFFF" d="M19.9,52.6h32.2c0.3,0,0.5-0.2,0.5-0.5v-7.3c0-1.5-1-2.9-2.5-3.3
		l-10.5-2.9l-0.1,0v-0.2v-1.9v-0.1l0.1-0.1c1.8-1,3-2.7,3.4-4.7l0-0.2h0.2h0.9c1.1,0,2-0.9,2-2c0-1.1-0.9-2-2-2h-0.7h-0.3l0.1-0.3
		l0.7-1.7c0.6-1.4,0.6-2.9,0.1-4.3c-0.5-1.4-1.6-2.5-3-3.1l-2-0.9c-0.3-0.1-0.6-0.2-0.9-0.3l-0.1,0v-0.1v-5.5c0-1.9-1.6-3.5-3.5-3.5
		H11.1c-1.9,0-3.5,1.6-3.5,3.5v10.2c0,1.9,1.6,3.5,3.5,3.5h1.2h0.3l-0.1,0.3l-1.1,3.4c-0.1,0.3,0.1,0.6,0.3,0.7c0.1,0,0.1,0,0.2,0
		c0.1,0,0.2,0,0.2-0.1l8.6-4.3l0,0h0h6.7h0.1l0.1,0.1l0,0l1.1,2.2l0.1,0.3h-0.3H28c-1.1,0-2,0.9-2,2c0,1.1,0.9,2,2,2h0.9H29l0,0.2
		c0.4,2,1.7,3.7,3.4,4.7l0.1,0.1v0.1v1.9v0.2l-0.1,0l-10.5,2.9c-1.5,0.4-2.5,1.8-2.5,3.3v7.3C19.4,52.4,19.6,52.6,19.9,52.6z
		 M43.1,30.2v-1.5v-0.2h0.2h0.7c0.5,0,0.9,0.4,0.9,0.9c0,0.5-0.4,0.9-0.9,0.9h-0.7h-0.2V30.2z M28.9,28.7v1.5v0.2h-0.2H28
		c-0.5,0-0.9-0.4-0.9-0.9c0-0.5,0.4-0.9,0.9-0.9h0.7h0.2V28.7z M37.6,48.6l-0.6,2.9l0,0.2h-0.2h-1.7H35l0-0.2l-0.6-2.9l0-0.1l0-0.1
		l1.2-3l0.1-0.1h0.1h0.5h0.1l0.1,0.1l1.2,3L37.6,48.6L37.6,48.6z M34.4,42.4l0.2-0.7l0.1-0.3l0.2,0.2l0.6,0.6
		c0.1,0.1,0.2,0.2,0.4,0.2s0.3-0.1,0.4-0.2l0.6-0.6l0.2-0.2l0.1,0.3l0.2,0.7l0,0.1l-0.1,0.1l-1.1,1.6l-0.1,0.1h-0.1h-0.7h-0.1
		l-0.1-0.1l-1.1-1.6L34.4,42.4L34.4,42.4z M33.7,38.8L33.7,38.8l-0.1-0.1v-1.5v-0.3l0.3,0.1c0.7,0.2,1.4,0.3,2.1,0.3h0
		c0.7,0,1.4-0.1,2.1-0.3l0.3-0.1v0.3v1.5v0.1l-0.1,0.1L36.2,41L36,41.1L35.9,41L33.7,38.8z M49.8,42.5c1,0.3,1.8,1.2,1.8,2.3v6.6
		v0.2h-0.2H47h-0.2v-0.2v-4.9h-1.1v4.9v0.2h-0.2h-7.2h-0.2l0-0.2l0.6-2.8c0-0.1,0-0.2,0-0.3L37.4,45l0-0.1l0.1-0.1l1.2-1.9
		c0.1-0.1,0.1-0.3,0.1-0.5l-0.6-1.8l0-0.1l0.1-0.1l0.8-0.8l0.1-0.1l0.1,0L49.8,42.5z M27.9,20.8L27.9,20.8c-0.5,0.8-0.7,1.8-0.6,2.8
		l0,0.2h-0.2h-6.4c-0.1,0-0.2,0-0.2,0.1l-7.2,3.6l-0.4,0.2l0.2-0.5l0.9-2.7c0-0.1,0-0.3,0-0.4c-0.1-0.1-0.2-0.2-0.3-0.3
		c-0.1,0-0.1,0-0.2,0h-2.2c-1.3,0-2.4-1.1-2.4-2.4V11.1c0-1.3,1.1-2.4,2.4-2.4h23.4c1.3,0,2.4,1.1,2.4,2.4v5.2v0.2l-0.2,0
		c-0.3,0-0.5,0-0.7,0l0,0l-0.2,0v0H23.8v1.1h7.8h0.6l-0.5,0.4c0,0,0,0,0,0l-1.2,0.9l0,0l0,0c-0.4,0.1-0.9,0.3-1.3,0.6l0,0h-0.1h-5.4
		v1.1h3.9h0.4L27.9,20.8z M29.4,26l-0.2-0.4l-0.6-1.2c-0.5-1-0.5-2.2,0.1-3.2c0.6-1,1.7-1.6,2.8-1.6c1.2,0,2.3,0.6,3,1.6l0.1,0.2
		l0.9-0.6l-0.1-0.2c-0.6-0.9-1.6-1.6-2.6-1.9l-0.4-0.1l0.4-0.2c1-0.6,2.1-0.9,3.3-0.9c0.9,0,1.7,0.2,2.5,0.5l2,0.9
		c2.3,1,3.3,3.8,2.3,6.1l-0.2,0.5L42.6,26l-0.2-0.4l-0.8-1.5c-0.1-0.2-0.3-0.3-0.5-0.3c-0.1,0-0.2,0-0.2,0.1c0,0-0.1,0-0.1,0.1
		l-1.2,0.9C38.6,25.5,37.3,26,36,26c-1.3,0-2.6-0.4-3.6-1.2l-1.2-0.9c-0.1-0.1-0.2-0.1-0.3-0.1c-0.2,0-0.3,0.1-0.4,0.2
		c0,0,0,0.1-0.1,0.1l-0.8,1.6L29.4,26z M30,30.2v-2.8v0l0,0l1-2l0.1-0.2l0.2,0.1l0.5,0.4C33,26.5,34.5,27,36,27c1.6,0,3-0.5,4.3-1.4
		l0.5-0.4l0.2-0.1l0.1,0.2l1,2l0,0v0v2.8c0,3.3-2.7,6.1-6.1,6.1S30,33.5,30,30.2z M20.4,51.4v-6.6c0-1.1,0.7-2,1.8-2.3l10.6-2.9
		l0.1,0l0.1,0.1l0.8,0.8l0.1,0.1l0,0.1l-0.6,1.8c-0.1,0.2,0,0.3,0.1,0.5l1.2,1.9l0.1,0.1l0,0.1l-1.3,3.3c0,0.1,0,0.2,0,0.3l0.6,2.8
		l0,0.2h-0.2h-7.2h-0.2v-0.2v-4.9h-1.1v4.9v0.2H25h-4.4h-0.2V51.4z"></path><path style="clip-path:url(#SVGID_2_);fill:#FFFFFF" d="M21.7,14.4c-0.1-0.1-0.2-0.2-0.4-0.2h-3.2h-0.1L18,14.1l-1.3-3.2
		c-0.1-0.2-0.3-0.3-0.5-0.3c-0.1,0-0.1,0-0.2,0c-0.1,0.1-0.2,0.2-0.3,0.3l-1.3,3.2l-0.1,0.1h-0.1h-3.2c-0.3,0-0.5,0.2-0.5,0.5
		c0,0.1,0.1,0.3,0.2,0.4l2.6,2.6l0.1,0.1l0,0.1l-1.3,3.2c-0.1,0.3,0,0.6,0.3,0.7c0.1,0,0.1,0,0.2,0c0.1,0,0.2,0,0.3-0.1l3.3-2
		l0.1-0.1l0.1,0.1l3.3,2c0.1,0,0.2,0.1,0.3,0.1c0.2,0,0.4-0.1,0.5-0.3c0.1-0.1,0.1-0.3,0-0.5L19.1,18l0-0.1l0.1-0.1l2.6-2.6
		c0.1-0.1,0.2-0.2,0.2-0.4S21.8,14.5,21.7,14.4z M19.7,15.7l-1.7,1.7c-0.2,0.2-0.2,0.4-0.1,0.6l0.7,1.6l0.2,0.6l-0.5-0.3l-1.8-1.1
		c-0.1,0-0.2-0.1-0.3-0.1s-0.2,0-0.3,0.1l-1.8,1.1l-0.5,0.3l0.2-0.6l0.7-1.6c0.1-0.2,0-0.4-0.1-0.6l-1.7-1.7l-0.3-0.3h0.5h1.9
		c0.2,0,0.4-0.1,0.5-0.3l0.8-2l0.2-0.5l0.2,0.5l0.8,2c0.1,0.2,0.3,0.3,0.5,0.3h1.9h0.5L19.7,15.7z"></path><path style="clip-path:url(#SVGID_2_);fill:#FFFFFF" d="M23.8,14.1c0,0.3,0.2,0.5,0.5,0.5h10.2c0.3,0,0.5-0.2,0.5-0.5v-2.9
		c0-0.3-0.2-0.5-0.5-0.5H24.3c-0.3,0-0.5,0.2-0.5,0.5V14.1z M24.8,13.3v-1.5v-0.2H25h8.8H34v0.2v1.5v0.2h-0.2H25h-0.2V13.3z"></path></g></svg>